<svg xmlns="http://www.w3.org/2000/svg" version="1.1" viewBox="225 440.78 150.83 102.04"> <g id="layer1"> <g style="fill:rgb(3,0,0); fill-opacity:1.0; stroke-linejoin: miter"> </g> <g style="fill:rgb(3,0,0); fill-opacity:1.0; stroke-linejoin: miter"> </g> <g style="fill:rgb(3,0,0); fill-opacity:1.0; stroke-linejoin: miter"> </g> <g style="fill:rgb(3,0,0); fill-opacity:1.0; stroke-linejoin: miter"> </g> <g style="fill:rgb(3,0,0); fill-opacity:1.0; stroke-linejoin: miter"> </g> <g style="fill:rgb(3,0,0); fill-opacity:1.0; stroke-linejoin: miter"> </g> <g style="fill:rgb(3,0,0); fill-opacity:1.0; stroke-linejoin: miter"> </g> <g style="fill:rgb(3,0,0); fill-opacity:1.0; stroke-linejoin: miter"> </g> <g style="fill:rgb(3,0,0); fill-opacity:1.0; stroke-linejoin: miter"> </g> <g style="fill:rgb(3,0,0); fill-opacity:1.0; stroke-linejoin: miter"> </g> <g style="fill:rgb(3,0,0); fill-opacity:1.0; stroke-linejoin: miter"> </g> <g style="fill:rgb(3,0,0); fill-opacity:1.0; stroke-linejoin: miter"> </g> <g style="fill:rgb(3,0,0); fill-opacity:1.0; stroke-linejoin: miter"> </g> <g style="fill:rgb(3,0,0); fill-opacity:1.0; stroke-linejoin: miter"> <path d="M347.89902,446.93146C347.96707,446.93146,348.01495,446.94922,348.04977,446.98422C348.2804,447.23056,350.0035,452.07382,350.08844,452.70633C350.13452,453.01746,350.16452,453.73645,350.17072,454.3046C350.15118,454.29575,350.13434,454.28778,350.1206,454.2809C350.008,454.2246,349.42102,453.93515,348.80182,453.63763C348.7494,453.61212,348.6971,453.58643,348.6452,453.5607L348.64172,453.5607L348.05963,452.99356L348.05615,452.99356Q347.90018,453.1477,347.6887,453.34552L346.6507,454.24655C346.4427,454.04297,346.29932,453.78003,346.19666,453.44424C346.04318,452.9444,346.0397,452.93497,346.38953,452.66577C346.57803,452.51016,346.86124,452.148,347.01617,451.84418C347.53992,450.8895,347.58765,449.9508,347.2066,448.26105C347.06982,447.69073,346.9715,447.22394,346.9715,447.22394L347.45148,447.04575C347.65247,446.97113,347.79227,446.9335,347.891,446.93155C347.8937,446.9315,347.89636,446.93146,347.89902,446.93146 Z M343.49835,467.03323C343.55017,467.03323,343.62915,467.09113,343.67963,467.187C343.72784,467.2674,343.88867,467.41214,344.0495,467.50864C344.37115,467.6936,344.39526,467.8142,344.1621,468.07153C344.0736,468.16803,343.84848,468.56204,343.67963,468.948C343.27756,469.84058,342.80313,470.7412,342.66644,470.8779C342.61014,470.93417,342.5619,471.03873,342.5619,471.10303C342.5619,471.16736,342.52972,471.21564,342.4895,471.21564C342.44934,471.21564,342.35284,471.3845,342.28046,471.59357C342.10355,472.07602,341.50848,473.2581,341.4281,473.29025C341.39594,473.30634,341.25116,473.5556,341.1145,473.85312C340.73657,474.6894,340.1978,475.73474,340.1093,475.83124C340.06915,475.87952,339.90027,476.16898,339.7475,476.4665C339.59473,476.77206,339.32935,477.1339,339.16046,477.27063C338.99164,477.41537,338.5976,477.76114,338.27594,478.0506C337.95428,478.3401,337.504,478.71802,337.27887,478.89493C337.04565,479.0638,336.85266,479.24072,336.85266,479.2729C336.85266,479.30505,336.56317,479.55432,336.20935,479.8277C335.85556,480.1011,335.5661,480.3504,335.5661,480.38257C335.5661,480.40668,335.34094,480.60773,335.07556,480.83286C334.8022,481.05,334.35992,481.43594,334.0865,481.69327C333.82117,481.95862,333.50754,482.21594,333.39496,482.28027C333.2824,482.33655,332.9768,482.60193,332.7115,482.8753C332.45416,483.1407,332.19684,483.3578,332.15662,483.3578C332.1164,483.3578,331.82693,483.59097,331.5133,483.88046C330.71722,484.6122,329.59955,485.60126,329.24573,485.89075L328.94016,486.132L327.37213,486.10788C326.50366,486.0918,325.6031,486.05963,325.36182,486.02747L324.91956,485.97116L325.48242,485.61737C325.78802,485.41632,326.19812,485.1188,326.3911,484.94995C326.5841,484.78107,326.7851,484.64438,326.83337,484.64438C326.88965,484.64438,327.17108,484.4514,327.46057,484.21014C327.742,483.96893,328.09583,483.71964,328.2245,483.64728C328.3612,483.58295,328.66675,483.3578,328.89996,483.15677C329.14117,482.9477,329.45477,482.7306,329.5915,482.6582C329.7362,482.59387,330.00964,482.40088,330.19458,482.23203C330.37146,482.06317,330.62076,481.8782,330.73334,481.82193C330.97455,481.69327,331.4168,481.37967,331.67413,481.14648C331.77063,481.058,332.0199,480.8811,332.229,480.75244C332.43805,480.62378,332.76776,480.38257,332.96075,480.21368C333.16174,480.04483,333.43518,479.85184,333.5799,479.77948C333.7166,479.71515,333.99805,479.5141,334.1991,479.33722C334.4001,479.1603,334.61722,479.01556,334.68155,479.01556C334.89063,479.0075,335.4937,478.6537,335.5902,478.4768C335.64648,478.38834,335.7671,478.1632,335.87164,477.97824C335.96814,477.80133,336.0807,477.64856,336.1209,477.64856C336.20135,477.64856,336.76422,476.8203,336.9411,476.43433C337.0135,476.28156,337.1582,476.06445,337.2708,475.95187C337.4879,475.7267,338.21967,474.72156,338.21967,474.64117C338.21967,474.56073,338.6941,473.87726,338.86298,473.70837C339.03986,473.5315,339.42584,472.94446,339.6269,472.5585C339.71533,472.38965,339.8842,472.15643,339.99677,472.03583C340.1978,471.82675,340.54358,471.33624,340.79285,470.902C341.07428,470.41956,341.36377,470.00946,341.53262,469.83255C341.63715,469.73605,341.90253,469.35007,342.11963,468.98822C342.33673,468.61832,342.63428,468.19214,342.779,468.03937C342.92377,467.88657,343.04437,467.7338,343.04437,467.6936C343.04437,467.66144,343.1328,467.53278,343.2454,467.4041C343.35797,467.27545,343.4464,467.13873,343.4464,467.09854C343.4464,467.05362,343.4676,467.03323,343.49835,467.03323 Z M318.20535,486.98947C318.24988,486.98947,318.2893,487.01337,318.35797,487.05673C318.45447,487.12106,318.43036,487.13715,318.26147,487.13715C318.14893,487.13715,317.98004,487.16125,317.89963,487.1854C317.88354,487.19022,317.87164,487.19247,317.8638,487.19247C317.8324,487.19247,317.86584,487.15643,317.95593,487.10498C318.0887,487.0253,318.15085,486.98947,318.20535,486.98947 Z M336.0003,497.34943C336.24957,497.34943,336.45062,497.3816,336.45062,497.42984C336.45062,497.54242,336.1933,498.1857,336.1209,498.23395C336.0968,498.2581,336.0003,498.66818,335.9199,499.1587L335.7671,500.0432L335.71887,498.91745C335.6867,498.29828,335.63843,497.6952,335.60626,497.56653L335.55,497.34943 Z M348.0701,471.0548C348.11835,471.0548,348.4239,471.30408,348.74554,471.61768C348.90955,471.78168,349.06918,471.92813,349.18875,472.0305L349.18527,472.0305Q354.95938,481.70285,355.67697,483.32538Q357.77222,487.36398,358.22458,490.01642Q358.55222,491.79495,358.37488,493.55914Q358.31177,494.21268,358.21686,494.80936Q357.50577,498.82745,357.28723,500.27075C356.67462,499.59085,356.5547,499.52054,356.22385,499.52054C355.87003,499.52054,355.29108,499.40796,355.21066,499.3356C355.18652,499.31146,355.21066,499.1587,355.26694,499.00592C355.36343,498.70035,355.56445,497.4861,355.66095,496.62573C355.7816,495.54016,355.46796,493.57813,355.0418,492.6936C354.88098,492.35587,354.696,492.04224,354.62366,491.98596C354.55127,491.9377,354.39044,491.69647,354.26984,491.4472C354.12732,491.16592,353.8134,490.77267,353.44385,490.3866L353.4403,490.3866Q353.55478,489.81137,353.50974,488.87854Q353.49457,488.668,353.44763,488.4212Q353.35538,488.11996,353.1524,486.94525Q352.98514,486.3183,352.8164,486.0728Q352.37988,485.5616,351.756,484.61417Q351.58844,484.40128,351.32806,484.15637Q351.06146,483.91983,350.71808,483.82056Q350.22693,483.66873,349.34134,483.59488L349.33194,483.5946Q348.73694,483.62695,348.15823,483.93332Q347.0262,484.53442,346.76178,485.05164Q346.20395,486.51428,346.27368,487.91724L346.27023,487.91724C345.21555,488.08304,344.15112,488.42084,343.48663,488.84186C343.22125,489.0027,342.85944,489.2198,342.6825,489.31628C342.5056,489.41278,342.1759,489.6862,341.95074,489.91937C341.7176,490.1606,341.50046,490.3536,341.4522,490.3536C341.3557,490.3536,340.96973,490.85217,340.76068,491.23813C340.62878,491.49216,340.5681,491.59482,340.45065,491.59482C340.3748,491.59482,340.27518,491.55197,340.11737,491.47937C339.73138,491.29443,338.94336,490.41794,338.94336,490.16867C338.94336,490.09628,338.89514,489.99176,338.8388,489.93546C338.78253,489.87918,338.5815,489.55753,338.39655,489.21176C338.05078,488.58453,337.42358,487.8528,336.20935,486.67075C335.43744,485.9149,335.17206,485.75406,334.48053,485.6093C333.80505,485.46457,333.72467,485.4083,333.96588,485.28766C334.07043,485.23138,334.2071,485.11078,334.27142,485.0223C334.32776,484.9419,334.49658,484.8213,334.64136,484.75696C334.78607,484.70065,335.1801,484.42725,335.50977,484.1619C335.83948,483.89655,336.14502,483.67944,336.18524,483.67944C336.2174,483.67944,336.4345,483.52667,336.6516,483.34973C336.87677,483.1648,337.27887,482.8753,337.5603,482.69843C337.83368,482.5215,338.1071,482.31244,338.1634,482.23203C338.2116,482.15967,338.38855,482.02295,338.54132,481.94254C338.91925,481.74152,339.34543,481.43594,339.58667,481.20276C339.69122,481.0982,339.8922,480.9535,340.02893,480.88916C340.29428,480.74442,340.72046,480.43884,341.02603,480.1574C341.13055,480.0609,341.37982,479.93225,341.5728,479.884C341.9347,479.79553,342.2322,479.49802,342.51367,478.95123C342.586,478.8145,342.6825,478.6939,342.71466,478.6939C342.7951,478.6939,343.52686,477.63248,343.52686,477.52795C343.52686,477.45557,344.0254,476.74796,344.146,476.6434C344.27466,476.53888,344.81342,475.77496,344.81342,475.70258C344.81342,475.61414,345.32,474.8824,345.42456,474.81003C345.5371,474.7457,345.97137,474.09436,346.22064,473.61993C346.30908,473.45105,346.48596,473.20178,346.61462,473.05707C346.8961,472.74344,347.467,471.93933,347.467,471.8509C347.467,471.73026,347.98163,471.0548,348.0701,471.0548 Z M241.72562,507.3205L259.48053,507.32852L277.2274,507.33655L276.42328,507.60995C275.6513,507.86728,275.26532,508.03613,275.17688,508.12457C275.15277,508.15674,274.95978,508.23718,274.73462,508.31757C274.51752,508.398,274.17175,508.5347,273.97876,508.62314C273.78577,508.7116,273.49628,508.80005,273.33545,508.82416C273.17462,508.8483,272.86102,508.95282,272.64392,509.05737C272.41876,509.15387,272.13733,509.26645,272.01672,509.29056C271.8961,509.32272,271.7996,509.37903,271.7996,509.41922C271.7996,509.4594,271.7594,509.49158,271.7031,509.49158C271.65485,509.49158,271.46185,509.56396,271.27692,509.6524C271.1,509.74088,270.38434,509.99817,269.7089,510.2153C269.0254,510.44046,268.43036,510.67365,268.38208,510.72992C268.3419,510.78622,268.05243,510.9149,267.7388,511.0194C267.43323,511.1159,267.09552,511.25262,266.99097,511.3089C266.89447,511.37323,266.62912,511.46167,266.39594,511.5019C266.17078,511.55014,265.79285,511.67075,265.55963,511.78333C265.32645,511.8959,265.10132,511.98438,265.05304,511.98438C265.01285,511.98438,264.9646,512.01654,264.94852,512.0487C264.9405,512.0808,264.70728,512.1934,264.44193,512.298C264.17657,512.3945,263.78253,512.54724,263.5574,512.6357C263.34027,512.71606,263.08295,512.78845,262.9945,512.78845C262.898,512.78845,262.7935,512.8206,262.74524,512.8528C262.70502,512.893,262.3834,513.02167,262.02957,513.1503C261.67578,513.27094,261.35413,513.41565,261.30585,513.472C261.26566,513.52826,261.0244,513.64087,260.7832,513.7132C260.54196,513.7856,260.19617,513.91425,260.0193,513.9946C259.84238,514.0751,259.52072,514.17957,259.30362,514.22784C259.09454,514.2761,258.75684,514.3887,258.56384,514.4771C258.37888,514.56555,258.17786,514.63794,258.13763,514.63794C258.08942,514.63794,258.0492,514.6701,258.0492,514.7103C258.0492,514.7505,257.96075,514.8068,257.84814,514.83093C257.7356,514.8631,257.45416,514.96765,257.22095,515.07214C256.9958,515.1767,256.5857,515.32947,256.32034,515.40186C256.055,515.4823,255.73334,515.5868,255.59663,515.64307C255.46799,515.69934,255.15437,515.81195,254.91313,515.88434C254.6719,515.9647,254.4387,516.07733,254.39046,516.1336C254.35025,516.1819,254.07686,516.3105,253.78737,516.407C253.4979,516.5035,253.16016,516.63214,253.02347,516.6885C252.8948,516.7367,252.61336,516.82513,252.39624,516.8734C252.01831,516.96985,251.28656,517.27545,251.2142,517.37195C251.19008,517.4041,250.97296,517.49255,250.73172,517.573C250.4905,517.6534,250.1608,517.78204,250.00803,517.8624C249.85524,517.9429,249.54968,518.04736,249.32452,518.1037C249.10742,518.1519,248.85814,518.2243,248.78577,518.2645C248.70535,518.3047,248.41586,518.4173,248.14247,518.50574C247.86102,518.60223,247.6198,518.7068,247.59567,518.73895C247.51526,518.83545,246.98454,519.0445,245.89095,519.4064C244.82147,519.76013,244.45963,519.91296,244.37921,520.0255C244.35507,520.0577,244.13797,520.1461,243.89673,520.22656C243.6555,520.29895,243.3821,520.4115,243.29364,520.4597C243.12479,520.5643,242.41716,520.7894,241.99097,520.8699L241.72562,520.92615L241.72562,514.1233L241.72562,507.3205 Z M321.9765,507.3205L321.9765,514.1635C321.9765,518.29596,321.94473,520.95056,321.90485,520.95056C321.9046,520.95056,321.90436,520.95044,321.9041,520.95026C321.86392,520.92615,321.6468,520.8779,321.4297,520.82965C321.20453,520.7894,320.86682,520.68494,320.67383,520.6045C320.48083,520.52405,320.11096,520.3713,319.84558,520.2667C319.58023,520.16223,319.339,520.0497,319.31488,520.00946C319.2666,519.929,318.31775,519.5752,317.86746,519.46265C317.44934,519.3581,316.404,518.97217,316.3075,518.88367C316.26727,518.8515,316.18686,518.81934,316.12253,518.81934C316.06622,518.81934,315.9617,518.7711,315.8974,518.7068C315.84106,518.64246,315.59985,518.5299,315.36664,518.4575C315.13348,518.38513,314.87616,518.2967,314.80377,518.2484C314.7234,518.20825,314.58667,518.176,314.49823,518.176C314.40976,518.176,314.27307,518.1439,314.19263,518.09564C313.97552,517.97504,312.6005,517.45233,312.49597,517.45233C312.4477,517.45233,312.40753,517.4121,312.40753,517.37195C312.40753,517.3237,312.3673,517.2915,312.31104,517.2915C312.26276,517.2915,312.02155,517.19507,311.78027,517.08246C311.53906,516.96985,311.20935,516.8573,311.04852,516.8332C310.88773,516.81714,310.63043,516.72864,310.4776,516.64825C310.32483,516.5678,309.99518,516.43915,309.74588,516.3668C309.49658,516.3025,309.21515,516.1738,309.11865,516.0934C309.02216,516.013,308.46735,515.78784,307.8803,515.61096C307.30136,515.42596,306.63394,515.18475,306.4088,515.0802C306.18365,514.96765,305.8861,514.85504,305.7494,514.83093C305.60468,514.79877,305.4921,514.7505,305.4921,514.7184C305.4921,514.67816,305.38757,514.6299,305.25085,514.5977C305.1222,514.56555,305.00964,514.51733,305.00964,514.48517C305.00964,514.4128,304.29395,514.15546,304.0849,514.15546C303.99646,514.15546,303.83563,514.10724,303.72302,514.0509C303.61047,513.9946,303.24057,513.84186,302.90283,513.72125C302.55707,513.5926,302.27563,513.4639,302.27563,513.43176C302.27563,513.3996,301.9942,513.279,301.65646,513.1584C301.31067,513.0377,300.95688,512.90906,300.8684,512.87695C300.77997,512.83673,300.47443,512.74023,300.18494,512.64374C299.66223,512.4829,298.80988,512.13715,298.73752,512.06476C298.66516,511.9924,297.74042,511.63055,297.24988,511.49384C296.4699,511.26868,295.4406,510.86664,295.31195,510.74603C295.24765,510.6817,294.74103,510.48065,294.1701,510.29572C292.9157,509.88562,291.90253,509.49158,291.90253,509.4112C291.90253,509.37903,291.73364,509.30664,291.53262,509.25037C291.3316,509.19406,291.03406,509.08148,290.87323,508.99304C290.7124,508.91263,290.5114,508.8483,290.41492,508.8483C290.2541,508.8483,289.91635,508.73572,289.40976,508.51056C289.25696,508.4382,288.97552,508.33368,288.7906,508.27737C288.5976,508.22913,288.44482,508.15674,288.44482,508.12457C288.44482,508.0442,288.07492,507.88336,287.19843,507.59387L286.39432,507.32852L304.18945,507.32852L321.9765,507.3205 Z M340.06583,440.78265C340.01663,440.78265,339.96573,440.78317,339.91333,440.7842C339.18213,440.7986,338.15378,440.91235,337.23203,441.09473C336.83575,441.1734,336.4946,441.26468,336.19962,441.3742C335.4329,441.65884,334.97803,442.06656,334.67813,442.69604C334.55978,442.95416,334.44678,443.37088,334.4296,443.6129C334.40643,443.86783,334.23126,444.6075,334.02115,445.25308C334.00766,445.2965,333.99448,445.33975,333.98157,445.38287Q333.4916,445.3509,333.0446,445.3509Q332.9245,445.3509,332.80753,445.3532Q331.41592,445.38065,330.4628,445.7344Q330.46075,445.73514,330.4587,445.7359L330.4341,445.74573Q329.19125,446.30334,329.74548,446.93274Q330.22464,447.43137,332.49258,447.76654Q332.9176,447.8316,333.5327,447.9043L333.5319,447.9046C333.5281,448.17,333.54468,448.4126,333.5823,448.62857C333.72302,449.4116,333.63882,450.02118,333.2469,450.927C332.6963,452.213,332.7457,452.54807,333.5367,452.83264L334.0508,453.00592L334.04913,453.52057C334.04425,453.94006,334.07672,454.05643,334.22675,454.17206C334.38028,454.29712,334.3918,454.35706,334.31595,454.55658C334.21887,454.7854,334.23874,454.81015,334.57373,455.1355C334.8033,455.35013,334.99738,455.64218,335.1127,455.95273C335.31888,456.5081,335.64658,456.90045,336.0362,457.0557C336.0968,457.079,336.163,457.09158,336.24683,457.09158C336.25253,457.09158,336.2583,457.09152,336.26416,457.0914C336.4744,457.08725,336.7941,457.00806,337.39758,456.82867C338.03513,456.63916,338.49802,456.5395,338.79514,456.53363C338.80444,456.53345,338.81357,456.53336,338.82254,456.53336C338.85217,456.53336,338.88,456.53436,338.9061,456.53635C339.36185,456.5813,339.94583,456.94284,340.25336,457.39624C340.3633,457.5482,340.7085,457.9876,341.0233,458.37402C341.15988,458.53976,341.28958,458.7042,341.41226,458.86713L341.40884,458.86713Q341.11502,459.04675,340.80103,459.21307L340.80444,459.21307C340.6382,459.51285,340.2214,460.15625,340.12543,460.23944C339.99677,460.352,339.61078,460.9229,339.5304,461.12396C339.42584,461.39734,338.84686,462.28992,338.7745,462.28992C338.70215,462.28992,338.21967,463.11816,338.21967,463.24683C338.21967,463.3031,338.4287,463.43982,338.68604,463.54434C338.9353,463.65692,339.15244,463.76147,339.16852,463.77753C339.2248,463.82578,338.84686,464.61383,338.75037,464.646C338.6941,464.6701,338.50916,465.00784,338.34833,465.40186C338.05078,466.09338,337.52008,467.11462,337.41553,467.19504C337.38336,467.21918,337.23865,467.48453,337.09387,467.79813C336.32196,469.4144,336.16113,469.73605,336.03247,469.83255C335.95203,469.88882,335.88773,469.9773,335.88773,470.0175C335.88773,470.13812,334.95496,472.05994,334.8263,472.1886C334.72174,472.30118,334.58505,472.5746,333.8694,474.07025C333.6764,474.46426,333.47537,474.8422,333.41907,474.89847C333.3628,474.9628,333.20197,475.2362,333.0733,475.5096C332.82404,476.0162,332.6391,476.22528,332.10034,476.62732C331.9395,476.7399,331.7063,476.94897,331.57764,477.0857C331.44897,477.22238,331.11127,477.51184,330.82178,477.72897C330.5323,477.94608,330.2589,478.18732,330.20264,478.27576C330.15436,478.35617,329.84076,478.62958,329.51108,478.87885C329.1814,479.12814,328.8919,479.3774,328.8678,479.44174C328.85168,479.49802,328.61853,479.7071,328.3612,479.9001C328.09583,480.1011,327.66965,480.471,327.41235,480.72028C327.15503,480.9776,326.8977,481.18668,326.85748,481.18668C326.80927,481.18668,326.4876,481.45203,326.14185,481.76563C325.80408,482.08728,325.23315,482.59387,324.89545,482.89944C324.54968,483.19696,323.9948,483.68747,323.6571,483.985C323.3194,484.28253,322.85297,484.67654,322.61176,484.86954C322.28607,485.12762,322.1999,485.1885,321.96564,485.1885C321.89334,485.1885,321.80695,485.1827,321.69507,485.1751C321.4297,485.15097,320.50494,485.11078,319.64456,485.0786L318.07654,485.03033L317.393,485.352C317.01508,485.52087,316.32355,485.85056,315.84912,486.08374C315.3747,486.3089,314.9646,486.49384,314.94852,486.49384C314.92438,486.49384,314.68317,486.5984,314.40173,486.72705C313.8308,486.9924,313.45288,487.3623,313.45288,487.65176C313.45288,487.893,313.44482,487.893,311.44257,488.19052C309.21515,488.5202,307.90445,488.72125,306.97974,488.866C305.26697,489.1394,303.0315,489.4691,302.90283,489.4691C302.78223,489.4691,302.75812,489.38867,302.75812,488.91425L302.75812,488.3594L302.33997,488.279C300.99707,488.02972,300.15277,487.82065,299.34863,487.54724C297.94144,487.05673,297.54742,486.8557,297.0971,486.37323C296.45383,485.69775,295.21548,485.2153,293.14893,484.8293C292.7147,484.7489,291.92664,484.7087,291.1336,484.7087C290.3405,484.7087,289.54245,484.7489,289.08813,484.8293C288.091,485.00623,286.71594,485.34396,286.0727,485.56107C285.7671,485.67365,285.0193,485.90683,284.42426,486.08374C283.82916,486.26868,283.16177,486.47775,282.9366,486.55014C282.71948,486.6225,282.15662,486.78333,281.69025,486.90393C281.22385,487.02457,280.37952,487.24973,279.80054,487.41052C279.2296,487.57135,278.39337,487.7965,277.9511,487.9091C277.50882,488.0136,276.9781,488.1584,276.76904,488.23074L276.38306,488.3594L276.38306,488.78558L276.38306,489.21176L276.08554,489.26807C275.9167,489.29218,275.32965,489.42886,274.77484,489.55753C273.6732,489.80682,271.88,490.21692,270.19135,490.60287C268.86456,490.90845,267.07138,491.31854,265.88934,491.59195C265.40686,491.70453,264.58667,491.88947,264.08008,492.00204L263.15533,492.21112L263.03473,492.02618C262.5844,491.34268,261.88483,490.88434,260.9038,490.63504C260.59402,490.555,260.20288,490.51563,259.7617,490.51563C259.18362,490.51563,258.51962,490.5832,257.84012,490.71545C257.2692,490.82,256.19168,491.02103,255.43582,491.1577C254.68799,491.29443,253.50594,491.51154,252.82243,491.6402C252.13893,491.76886,251.2544,491.9377,250.85236,492.00204C250.45833,492.06638,249.76678,492.19504,249.32452,492.28348C247.5233,492.62927,246.15631,492.86246,245.55322,492.9268C244.79735,493.01523,242.66644,493.40924,242.61014,493.48163C242.58603,493.5138,242.20808,493.5942,241.76582,493.67462C241.32356,493.74698,240.47119,493.9078,239.87614,494.01233C239.3085,494.11972,238.7189,494.19785,238.53319,494.19785C238.52422,494.19785,238.51619,494.19766,238.50916,494.1973C238.2277,494.17316,238.2277,494.16513,238.17946,493.7309C238.11513,493.21625,238.07492,493.1037,237.76132,492.56494C237.22787,491.66434,236.57506,491.19345,235.88515,491.19345C235.77428,491.19345,235.66245,491.2056,235.54999,491.2301C234.66547,491.41504,234.07042,491.80103,232.93661,492.90265C232.1325,493.68265,231.42488,494.21338,231.1756,494.21338C231.09518,494.21338,230.88612,494.28574,230.7253,494.36615C230.55643,494.4546,230.21066,494.58325,229.94531,494.65564C229.67995,494.73605,229.44675,494.8245,229.42262,494.85666C229.3985,494.89685,229.10902,495.0014,228.77933,495.10596C227.72594,495.41956,227.12285,495.7814,226.8977,496.23975C226.80925,496.41666,226.174,496.8509,225.981,496.85892C225.61916,496.88303,224.99998,497.7354,224.99998,498.20984C224.99998,498.4591,225.2573,499.07025,225.394,499.15063C225.40883,499.1602,225.4287,499.16467,225.45262,499.16467C225.6103,499.16467,225.94466,498.96884,226.18204,498.72446C226.33481,498.56366,226.51172,498.48322,226.75296,498.45105L227.0907,498.41086L227.0907,502.86566L227.0907,507.3205L238.91121,507.3205L238.92729,524.8261L238.95142,542.3398L240.22995,542.3639C240.40369,542.3671,240.56038,542.3687,240.70045,542.3687C241.26056,542.3687,241.55516,542.34296,241.61304,542.2915C241.70953,542.2111,241.72562,540.5707,241.72562,531.9104C241.72562,522.1886,241.73366,521.62573,241.87036,521.5855C241.94272,521.5614,242.192,521.45685,242.40912,521.3523C243.28561,520.95026,243.43034,520.894,243.71982,520.85376C243.88065,520.82965,244.2023,520.7251,244.4194,520.6286C244.64456,520.5321,245.01447,520.3874,245.24765,520.307C245.48083,520.2346,245.71404,520.13007,245.77032,520.0738C245.87486,519.96924,246.63876,519.67975,247.90927,519.2616C248.27917,519.141,248.67319,518.9882,248.79381,518.93195C248.90637,518.8676,249.05112,518.81934,249.10742,518.81934C249.15565,518.81934,249.2039,518.7872,249.2039,518.755C249.2039,518.72284,249.3969,518.6183,249.6301,518.5379C249.85524,518.4575,250.13669,518.3369,250.24927,518.2806C250.36183,518.2243,250.53874,518.176,250.6513,518.176C250.76389,518.176,251.01317,518.09564,251.2142,518.0072C251.41522,517.9107,251.82532,517.7499,252.13089,517.6453C252.43646,517.5408,252.72594,517.4041,252.77419,517.3478C252.82243,517.28345,253.38531,517.0664,254.02861,516.8573C255.13025,516.5035,255.95044,516.1899,256.0389,516.07733C256.06302,516.0532,256.28015,515.9647,256.52136,515.88434C256.7626,515.8039,256.97974,515.71545,257.00385,515.6833C257.02795,515.6511,257.23703,515.57874,257.47827,515.5305C257.7195,515.4823,258.08136,515.36163,258.28238,515.2732C258.4834,515.18475,258.86136,515.04004,259.1267,514.95154C259.38403,514.8631,259.64136,514.7425,259.69763,514.68616C259.79413,514.5897,260.3168,514.3967,261.46667,514.0268C262.11,513.81775,262.9141,513.4961,262.9543,513.4237C263.0106,513.3433,263.98358,512.9734,264.6751,512.7804C264.98068,512.692,265.31842,512.57135,265.43903,512.5151C265.5516,512.4588,265.8411,512.3462,266.07428,512.2738C266.29944,512.1934,266.49243,512.105,266.49243,512.0808C266.49243,512.0004,266.99902,511.79138,267.57797,511.6225C267.84332,511.54208,268.18912,511.43756,268.3419,511.3813C268.4947,511.31696,268.88065,511.18024,269.2023,511.05963C269.5159,510.94705,269.7893,510.82642,269.8054,510.79425C269.83755,510.71387,271.1402,510.2153,271.52618,510.1349C271.7031,510.09467,272.0489,509.97406,272.2901,509.8695C272.53134,509.76498,272.8771,509.6283,273.04596,509.57202C273.2229,509.51572,273.3837,509.44336,273.40784,509.41922C273.4802,509.33075,274.01093,509.0976,274.4532,508.96893C275.54678,508.63922,276.64038,508.22913,276.7047,508.12457C276.72882,508.08438,276.95398,507.97986,277.20325,507.89142C277.46057,507.80295,277.78223,507.6823,277.92697,507.61798C278.54614,507.35266,278.9643,507.3205,281.81085,507.3205C284.61722,507.3205,285.0595,507.35266,285.6706,507.60193C285.8073,507.6582,286.11285,507.76276,286.35413,507.84314C286.59534,507.91553,286.8366,508.0281,286.87677,508.08438C286.92505,508.1407,287.2467,508.2854,287.6005,508.41406C287.95428,508.5347,288.284,508.66336,288.32422,508.69553C288.37244,508.72766,288.62976,508.8081,288.9112,508.88046C289.4178,509.00912,290.14148,509.29858,290.21387,509.4112C290.23798,509.44336,290.3988,509.51572,290.57574,509.57202C290.75262,509.6283,291.05017,509.74088,291.22705,509.8213C291.412,509.90167,291.7417,510.01428,291.95074,510.0625C292.16788,510.1188,292.4895,510.22333,292.66644,510.29572C292.84332,510.37613,293.1891,510.49673,293.43036,510.57715C293.67157,510.65756,293.89673,510.77014,293.93695,510.82642C293.96912,510.88272,294.29077,511.02747,294.66064,511.14C295.0225,511.26065,295.35217,511.3893,295.40045,511.4295C295.4406,511.46973,295.5371,511.5019,295.61755,511.5019C295.89093,511.5019,297.00867,511.92807,297.12927,512.0728C297.15338,512.105,297.34637,512.18536,297.5635,512.25775C297.77258,512.33014,298.1103,512.4668,298.30328,512.5553C298.49628,512.64374,298.84204,512.7483,299.07526,512.78845C299.3004,512.83673,299.52557,512.90106,299.5738,512.9413C299.62207,512.98145,299.89545,513.09406,300.18494,513.1986C300.47443,513.29504,300.7237,513.40765,300.7478,513.43176C300.8443,513.5443,301.42328,513.76953,302.54102,514.13135C303.20038,514.34045,303.7954,514.5736,303.87582,514.646C303.94818,514.7184,304.21356,514.839,304.45477,514.9194C304.688,514.99976,305.01767,515.1284,305.17047,515.20886C305.32324,515.2893,305.6851,515.41797,305.97455,515.4903C306.26404,515.5627,306.53748,515.6511,306.57764,515.6833C306.62592,515.71545,306.86713,515.8039,307.12445,515.8763C307.37372,515.94867,307.58282,516.0371,307.58282,516.07733C307.58282,516.1738,307.86426,516.2864,309.33575,516.77686C310.07556,517.0181,310.71887,517.2594,310.75906,517.3157C310.85556,517.4282,311.13702,517.5408,313.00256,518.1841C313.75037,518.4414,314.38562,518.6826,314.40976,518.72284C314.4339,518.76306,314.54645,518.8274,314.65906,518.85956C314.7716,518.8917,315.04498,519.0043,315.27014,519.1008C315.4953,519.2053,315.92953,519.36615,316.2351,519.4546C317.11157,519.7119,317.82727,519.96924,317.9157,520.0738C317.96393,520.122,318.21326,520.2427,318.47858,520.3391C318.74396,520.44366,319.1219,520.5884,319.32294,520.6688C319.52393,520.74927,319.82953,520.8457,320.0064,520.8699C320.28784,520.9181,321.1402,521.2719,321.2528,521.3925C321.27692,521.4247,321.4458,521.489,321.63074,521.53723L321.9765,521.6418L321.99258,531.9908L322.01672,542.3398L323.3676,542.3639L324.7105,542.38L324.7105,524.8502L324.7105,507.31244L330.28302,507.35266C333.33868,507.3687,336.13702,507.42502,336.4908,507.4652C337.95428,507.65015,340.3506,508.06027,340.39078,508.12457C340.4551,508.22107,343.3258,508.6714,345.899,508.97696C346.47797,509.04932,347.12122,509.15387,347.33835,509.2182C347.55548,509.28253,347.85297,509.33075,347.99774,509.33075C348.14246,509.33075,348.27112,509.3629,348.28723,509.39508C348.30328,509.4353,348.81793,509.53986,349.43707,509.63635C350.05627,509.73282,351.01318,509.88562,351.568,509.97406C352.12286,510.0625,352.75812,510.1349,352.97522,510.1349C353.20038,510.1349,353.5783,510.18314,353.81952,510.24747C354.2216,510.352,355.37146,510.53693,355.62878,510.53693C355.6931,510.53693,355.75745,510.34396,355.81372,509.99014C355.8861,509.52374,355.93436,509.40314,356.21582,509.11365C356.59375,508.71964,356.56158,508.82416,356.87518,506.59677C357.0299,505.49332,357.131,504.80225,357.20462,504.37527L357.2082,504.37527Q357.2294,506.24487,357.28262,507.85486Q357.31256,508.58826,357.67056,509.8734Q359.57703,515.1848,360.26807,517.8166Q360.94397,520.28906,361.30298,522.6694Q361.60764,524.6742,361.71747,527.2421Q361.82675,528.2626,361.75464,537.3655L361.77332,537.8361L361.76968,537.8361C361.57532,537.9679,361.4101,538.0377,361.2898,538.0377C361.15308,538.0377,360.8797,538.1262,360.6706,538.2388C360.46155,538.3513,360.17206,538.4639,360.03534,538.48804C359.89063,538.5122,359.77002,538.5604,359.77002,538.5926C359.77002,538.62476,359.59308,538.7052,359.36792,538.7615C359.15082,538.81775,358.96588,538.89813,358.96588,538.93835C358.96588,538.9705,358.90155,539.0027,358.82916,539.0027C358.74878,539.0027,358.3628,539.0751,357.96075,539.15546C357.5667,539.2439,356.87518,539.3887,356.44095,539.48517C355.66095,539.65405,355.18652,539.83093,355.18652,539.9596C355.18652,539.99176,355.03375,540.07214,354.84882,540.1365C354.46283,540.26514,353.7713,540.88434,353.6989,541.1818C353.6748,541.2864,353.6587,541.6965,353.6748,542.0985L353.6989,542.82227L367.85138,542.82227L367.8755,542.05835C367.90765,541.11755,367.76294,539.8229,367.5619,539.2841C367.47345,539.05896,367.40912,538.80164,367.40912,538.69714C367.40912,538.31116,366.9588,537.78845,366.4281,537.5392C366.25922,537.4668,366.12253,537.35425,366.12253,537.298C366.13055,537.2417,366.20294,536.90393,366.29138,536.5501C366.37982,536.1963,366.47632,535.81836,366.50046,535.7058C366.5246,535.59326,366.58087,535.4887,366.61304,535.4646C366.6452,535.4404,366.74976,535.09467,366.8382,534.7007C366.9347,534.2986,367.0794,533.70355,367.16788,533.3739C367.25635,533.0442,367.3689,532.4894,367.40912,532.1355C367.4493,531.7898,367.51364,531.46814,367.55383,531.4118C367.6021,531.3636,367.69055,531.0178,367.77097,530.6399C367.84332,530.26196,367.9318,529.9403,367.95593,529.91614C368.04437,529.8518,368.18106,529.38544,368.3419,528.6698C368.41425,528.316,368.52686,527.82544,368.59116,527.5842C368.6555,527.343,368.74396,526.9409,368.77612,526.6997C368.92084,525.7428,369.146,524.8502,369.2666,524.76984C369.29877,524.7457,369.38724,524.2954,369.4596,523.76465C369.64456,522.4218,369.64456,520.2909,369.4596,519.34204C369.3943,519.0154,369.32364,518.7312,369.2822,518.62317L369.2859,518.62317Q369.3433,518.6277,369.39993,518.6308Q369.65906,518.6607,369.96274,518.6607Q371.87564,518.6607,375.55606,517.4742Q376.32098,496.9463,374.9441,490.01227Q374.2943,486.20233,372.74622,483.7974Q371.93726,482.52515,370.7541,481.36517Q365.54288,476.86612,365.12585,476.277Q364.3181,475.44016,363.47427,474.35168L363.477,474.35168C363.3081,473.91745,362.8176,472.9525,362.71307,472.86407C362.66483,472.8158,362.504,472.52634,362.35925,472.22076C361.89288,471.22366,361.41846,470.30698,361.32196,470.21048C361.15308,470.04163,360.73492,469.20532,360.73492,469.0445C360.73492,468.9641,360.70276,468.87564,360.66257,468.84348C360.62238,468.81934,360.46957,468.54596,360.32483,468.2404C360.18814,467.9268,360.03534,467.6775,359.99515,467.6775C359.95496,467.6775,359.79413,467.39606,359.64136,467.0503C359.25537,466.20596,358.70053,465.10434,358.64423,465.10434C358.596,465.10434,358.2663,464.453,357.75165,463.3755C357.5667,462.97342,357.3657,462.61157,357.30136,462.57135C357.24506,462.52313,357.06818,462.0728,356.9154,461.56622C356.65002,460.68973,356.256,459.76498,356.04694,459.5318C355.93436,459.4112,355.7896,459.1619,355.51624,458.6312C355.28302,458.18088,354.9453,457.71448,354.58344,457.33655C354.45477,457.19986,354.1251,456.84604,353.85974,456.55658C353.59436,456.25903,353.33707,456.01782,353.28882,456.01782C353.24057,456.01782,353.07172,455.88916,352.9109,455.73636C352.80252,455.628,352.58084,455.467,352.35208,455.3252L352.34857,455.3252Q354.42505,454.71158,356.39667,454.1067L356.39963,454.10663C356.08014,453.22046,355.6968,452.48032,355.1619,451.6901C354.16217,450.2087,353.46445,449.3967,352.01328,447.99725C350.5387,446.56366,349.6982,445.94394,348.74536,445.56952C348.34277,445.4083,347.78546,445.17618,347.505,445.0554C347.23077,444.9373,346.91483,444.84488,346.78235,444.84488C346.78055,444.84488,346.77878,444.8449,346.77704,444.84494C346.77588,444.84494,346.77478,444.84497,346.77368,444.845C346.76962,444.84534,346.76547,444.84552,346.76132,444.8456C346.7599,444.84564,346.75845,444.84564,346.75702,444.84564C346.6143,444.84564,346.43893,444.7064,346.1924,444.37543C345.70453,443.7535,344.73694,442.84903,344.03464,442.37082C343.25742,441.8348,341.25113,440.93054,340.6311,440.81805C340.48947,440.79407,340.296,440.78265,340.06583,440.78265 Z"></path> </g> </g> </svg>